<?xml version="1.0" encoding="utf-8"?>
<!-- Generator: Adobe Illustrator 25.0.0, SVG Export Plug-In . SVG Version: 6.00 Build 0)  -->
<svg version="1.1" xmlns="http://www.w3.org/2000/svg" xmlns:xlink="http://www.w3.org/1999/xlink" x="0px" y="0px"
	 viewBox="0 0 2267.7 1133.9" style="enable-background:new 0 0 2267.7 1133.9;" xml:space="preserve">
<style type="text/css">
	.st0{stroke:#000000;}
	.st1{font-family:'Athiti-ExtraLight';}
	.st2{font-size:25px;}
	.st3{font-size:15px;}
	.st4{fill:#F6F6F6;stroke:#000000;stroke-width:3;stroke-miterlimit:10;}
</style>
<g id="Text">
	<g>
		<g>
			<path class="st0" d="M566,330.1h-9.3v23.7h-1.2v-23.7h-9.3V329H566V330.1z"/>
			<path class="st0" d="M588.9,329v24.9h-1.2v-12.1h-16.5v12.1H570V329h1.2v11.6h16.5V329H588.9z"/>
			<path class="st0" d="M605.5,354c-2,0-3.6-0.4-4.9-1.1c-1.3-0.7-2.4-1.7-3.2-2.9c-0.8-1.2-1.3-2.5-1.7-4c-0.3-1.5-0.5-3-0.5-4.6
				V329h1.2v12.5c0,1.4,0.1,2.8,0.4,4.2c0.3,1.4,0.8,2.6,1.5,3.7s1.6,1.9,2.8,2.6c1.2,0.6,2.6,0.9,4.4,0.9c1.8,0,3.2-0.3,4.4-1
				c1.2-0.7,2.1-1.5,2.8-2.6c0.7-1.1,1.2-2.3,1.4-3.7c0.3-1.4,0.4-2.7,0.4-4.1V329h1.2v12.5c0,1.6-0.2,3.2-0.5,4.7
				c-0.4,1.5-0.9,2.9-1.7,4c-0.8,1.2-1.8,2.1-3.1,2.8C609,353.7,607.4,354,605.5,354z"/>
		</g>
	</g>
	<g>
		<g>
			<path class="st0" d="M650.7,353.8c0-0.5,0.1-1.2,0.2-2c0.1-0.8,0.4-1.6,0.8-2.5c0.4-0.9,1-1.8,1.8-2.6c0.8-0.8,1.9-1.6,3.3-2.2
				c0.7-0.3,1.4-0.6,2.1-0.9c0.7-0.3,1.5-0.7,2.1-1.1s1.2-1,1.6-1.6c0.4-0.6,0.6-1.3,0.6-2.2c0-0.7-0.2-1.4-0.6-2
				c-0.4-0.7-1-1.2-1.8-1.6c-0.8-0.4-1.8-0.6-3-0.6c-0.8,0-1.6,0.1-2.3,0.4c-0.7,0.3-1.2,0.6-1.8,0.9c-0.5,0.3-0.9,0.7-1.2,1
				c-0.3,0.3-0.5,0.6-0.6,0.7l-0.8-0.8c0,0,0.2-0.2,0.5-0.6c0.3-0.3,0.8-0.7,1.4-1.2c0.6-0.4,1.3-0.8,2.1-1.1
				c0.8-0.3,1.8-0.5,2.8-0.5c1.4,0,2.6,0.3,3.6,0.8c1,0.5,1.7,1.2,2.2,2c0.5,0.8,0.8,1.7,0.8,2.6c0,1-0.2,1.9-0.7,2.6
				c-0.5,0.7-1.1,1.3-1.8,1.8c-0.7,0.5-1.4,0.9-2.2,1.3c-0.8,0.4-1.5,0.7-2.1,0.9c-1.2,0.5-2.2,1.1-2.9,1.8
				c-0.7,0.7-1.3,1.4-1.7,2.1s-0.7,1.4-0.9,2c-0.2,0.6-0.3,1.1-0.3,1.5h12.9v1.1H650.7z"/>
			<path class="st0" d="M679.6,358.3v-6.8h-12.5v-1l12.8-16.7h0.8v16.6h3.1v1.1h-3.1v6.8H679.6z M668.5,350.4h11.1v-14.6
				L668.5,350.4z"/>
		</g>
	</g>
	<g>
		<g>
			<path class="st0" d="M550.8,476v2.6h-24.2V476h11.4v-39.4c-0.4,0.6-1.1,1.3-2.2,2.1c-1,0.8-2.2,1.5-3.5,2.2
				c-1.3,0.7-2.6,1.3-4,1.7c-1.3,0.5-2.5,0.7-3.6,0.7v-2.9c1.4,0,2.8-0.4,4.3-1.1c1.5-0.7,2.9-1.6,4.2-2.5c1.3-1,2.4-1.8,3.2-2.6
				c0.8-0.8,1.3-1.3,1.4-1.4h2.7V476H550.8z"/>
			<path class="st0" d="M602.7,476v2.6h-24.2V476h11.4v-39.4c-0.4,0.6-1.1,1.3-2.2,2.1c-1,0.8-2.2,1.5-3.5,2.2
				c-1.3,0.7-2.6,1.3-4,1.7c-1.3,0.5-2.5,0.7-3.6,0.7v-2.9c1.4,0,2.8-0.4,4.3-1.1c1.5-0.7,2.9-1.6,4.2-2.5c1.3-1,2.4-1.8,3.2-2.6
				c0.8-0.8,1.3-1.3,1.4-1.4h2.7V476H602.7z"/>
			<path class="st0" d="M630.3,442.9V437h2.5v5.9H630.3z M630.3,478.5v-5.9h2.5v5.9H630.3z"/>
			<path class="st0" d="M688.7,476v2.6h-24.2V476h11.4v-39.4c-0.4,0.6-1.1,1.3-2.2,2.1c-1,0.8-2.2,1.5-3.5,2.2
				c-1.3,0.7-2.6,1.3-4,1.7c-1.3,0.5-2.5,0.7-3.6,0.7v-2.9c1.4,0,2.8-0.4,4.3-1.1c1.5-0.7,2.9-1.6,4.2-2.5c1.3-1,2.4-1.8,3.2-2.6
				c0.8-0.8,1.3-1.3,1.4-1.4h2.7V476H688.7z"/>
			<path class="st0" d="M741,488.7v-15.4h-28.5v-2.3l29.3-38.1h1.9v37.8h7v2.6h-7v15.4H741z M715.8,470.7h25.4v-33.3L715.8,470.7z"
				/>
		</g>
	</g>
	<text transform="matrix(1 0 0 1 582.6419 809.5733)"><tspan x="0" y="0" class="st0 st1 st2">TIK</tspan><tspan x="32.4" y="0" class="st0 st1 st3">•</tspan><tspan x="37.1" y="0" class="st0 st1 st2">TAK</tspan></text>
	<g>
		<g>
			<path class="st0" d="M720,354.2v0.4h-5.8v-0.4h2.8v-10.4c-0.1,0.2-0.3,0.3-0.5,0.5c-0.3,0.2-0.5,0.4-0.9,0.6
				c-0.3,0.2-0.7,0.3-1,0.4c-0.3,0.1-0.6,0.2-0.9,0.2v-0.5c0.4,0,0.7-0.1,1.1-0.3s0.7-0.4,1.1-0.6c0.3-0.2,0.6-0.5,0.8-0.7
				c0.2-0.2,0.3-0.3,0.3-0.3h0.4v11H720z"/>
			<path class="st0" d="M721.3,354.6c0-0.2,0-0.6,0.1-1c0.1-0.5,0.2-0.9,0.4-1.5c0.2-0.5,0.6-1,1-1.5s1.1-0.9,1.9-1.3
				c0.4-0.2,0.8-0.3,1.2-0.5c0.4-0.2,0.8-0.4,1.2-0.6c0.4-0.3,0.7-0.6,1-0.9c0.2-0.4,0.4-0.8,0.4-1.3c0-0.4-0.1-0.8-0.4-1.2
				s-0.6-0.7-1.1-1c-0.5-0.3-1.1-0.4-1.8-0.4c-0.5,0-0.9,0.1-1.3,0.2c-0.4,0.2-0.7,0.3-1,0.5c-0.3,0.2-0.5,0.4-0.7,0.6
				c-0.2,0.2-0.3,0.3-0.3,0.4l-0.3-0.2c0.3-0.4,0.7-0.7,1-1c0.3-0.3,0.7-0.5,1.2-0.7c0.5-0.2,1-0.3,1.6-0.3c0.8,0,1.5,0.1,2,0.4
				s0.9,0.7,1.2,1.1c0.3,0.5,0.4,0.9,0.4,1.4c0,0.6-0.1,1.1-0.4,1.5c-0.3,0.4-0.6,0.8-1,1c-0.4,0.3-0.9,0.5-1.3,0.7
				s-0.9,0.4-1.3,0.5c-0.7,0.3-1.2,0.7-1.7,1.1c-0.4,0.4-0.7,0.9-1,1.3c-0.2,0.5-0.4,0.9-0.4,1.2s-0.1,0.7-0.1,0.8h7.4v0.4H721.3z"
				/>
			<path class="st0" d="M731.2,341.7c0-0.4,0.1-0.7,0.4-1s0.6-0.4,1-0.4c0.4,0,0.7,0.1,1,0.4c0.3,0.3,0.4,0.6,0.4,1
				c0,0.4-0.1,0.7-0.4,1c-0.3,0.3-0.6,0.4-1,0.4c-0.4,0-0.7-0.1-1-0.4C731.3,342.4,731.2,342,731.2,341.7z M731.9,341
				c-0.2,0.2-0.3,0.4-0.3,0.7c0,0.3,0.1,0.5,0.3,0.7c0.2,0.2,0.4,0.3,0.7,0.3s0.5-0.1,0.7-0.3c0.1-0.1,0.1-0.2,0.2-0.3
				c0.1-0.1,0.1-0.2,0.1-0.4c0-0.1,0-0.3-0.1-0.4c-0.1-0.1-0.1-0.2-0.2-0.3c-0.1-0.1-0.2-0.2-0.3-0.2c-0.1,0-0.2-0.1-0.4-0.1
				C732.3,340.7,732,340.8,731.9,341z"/>
			<path class="st0" d="M736,347.4c0-0.9,0.1-1.7,0.5-2.5c0.3-0.8,0.7-1.6,1.3-2.3c0.6-0.7,1.3-1.2,2.1-1.7c0.8-0.4,1.8-0.6,2.8-0.6
				c1.3,0,2.3,0.3,3.2,0.9c0.9,0.6,1.5,1.3,2,2.2l-0.4,0.1c-0.4-0.7-0.8-1.2-1.3-1.7c-0.5-0.4-1.1-0.7-1.7-0.9
				c-0.6-0.2-1.2-0.3-1.8-0.3c-1,0-1.9,0.2-2.6,0.6s-1.4,0.9-2,1.6s-0.9,1.4-1.2,2.2s-0.4,1.6-0.4,2.4c0,0.9,0.2,1.8,0.5,2.6
				c0.3,0.8,0.8,1.5,1.3,2.2c0.6,0.6,1.2,1.1,2,1.5c0.8,0.4,1.6,0.6,2.5,0.6c0.6,0,1.3-0.1,1.9-0.3c0.7-0.2,1.3-0.5,1.8-1
				s1-1,1.4-1.7l0.4,0.1c-0.3,0.7-0.8,1.3-1.4,1.8s-1.3,0.9-2,1.1s-1.5,0.4-2.2,0.4c-1,0-1.8-0.2-2.6-0.6c-0.8-0.4-1.5-1-2.1-1.7
				c-0.6-0.7-1-1.5-1.4-2.4C736.2,349.1,736,348.3,736,347.4z"/>
		</g>
	</g>
</g>
<g id="cadre">
	<path class="st4" d="M862,546.7L862,546.7c1.7,0,3,2.6,3,5.9v134.7c0,3.3-1.4,5.9-3,5.9l0,0V546.7z"/>
	<path class="st4" d="M862,386.4h2.7c4.7,0,8.5,4.4,8.5,9.8v53.1c0,5.4-3.8,9.8-8.5,9.8H862V386.4z"/>
	<path class="st4" d="M754,848.5H509.4c-59.6,0-108-48.3-108-108V349.4c0-59.6,48.3-108,108-108H754c59.6,0,108,48.3,108,108v391.1
		C862,800.2,813.6,848.5,754,848.5z"/>
</g>
<g id="ecran">
	<path class="st4" d="M759.1,829.9H505.7c-47.3,0-85.6-38.3-85.6-85.6v-401c0-47.3,38.3-85.6,85.6-85.6h253.4
		c47.3,0,85.6,38.3,85.6,85.6v401C844.7,791.6,806.4,829.9,759.1,829.9z"/>
</g>
<g id="bracelet">
	<path class="st4" d="M464.1,250.4l0.4-0.8c7.2-12.5,12.7-25.8,16.4-39.7l0,0c0,0,0,0,0,0l10-48l12.2-77.3c0.8-4.9,5.3-8.4,10.2-7.9
		l20.9,2c16.8,1.6,33.6,2.5,50.4,2.7l33.2,0.3c1.7,0,3.1,1.4,3.1,3.1v0c0,0.7,0.6,1.3,1.3,1.3H640c0.7,0,1.3-0.6,1.3-1.3v-0.2
		c0-1.7,1.4-3.1,3.2-3.1l24.9,0.5c20.6,0.4,41.2-0.2,61.7-2l17-1.5c4.4-0.4,8.5,2.4,9.8,6.6l22,71.6l18,54.4l6.9,18.2
		c1.1,2.8,2.2,5.6,3.4,8.4l8.1,22.6c0,0-22.3-16.9-59.4-19.1c-37.3-2.2-244.6,0-244.6,0S483.8,241.4,464.1,250.4z"/>
	<path class="st4" d="M446,828.8L446,828.8c7.5,12.5,15.8,36.6,19.7,50.5v0c0,0,0,0,0,0l10.4,48l12.7,77.3c0.8,4.9,5.5,8.4,10.7,7.9
		l21.9-2c17.5-1.6,35.2-2.5,52.8-2.7l34.8-0.3c1.8,0,3.2-1.4,3.2-3.1l0,0c0-0.7,0.6-1.3,1.3-1.3h18.7c0.7,0,1.3,0.6,1.3,1.3v0.2
		c0,1.7,1.5,3.1,3.3,3.1l26.1-0.5c21.6-0.4,43.1,0.2,64.6,2l17.8,1.5c4.6,0.4,8.9-2.4,10.3-6.6l23.1-71.6l18.8-54.4l7.2-18.2
		c1.1-2.8,2.3-5.6,3.6-8.4l11.6-25.2c0,0-26,22.1-65.2,22.3c-39.5,0.2-254.9-0.4-254.9-0.4C497.8,847.9,469.9,845.2,446,828.8z"/>
</g>
</svg>
