<svg width="30" height="30" viewBox="0 0 30 30" fill="none" xmlns="http://www.w3.org/2000/svg">
<g clip-path="url(#clip0_67_336)">
<path d="M29.7555 8.32031C29.6695 8.19818 29.5554 8.0985 29.4229 8.02966C29.2903 7.96082 29.1432 7.92484 28.9938 7.92474H9.09727L7.59117 2.73099C7.00055 0.685839 5.59708 0.465057 5.02145 0.465057H1.00567C0.490957 0.465057 0.074707 0.881776 0.074707 1.39599C0.074707 1.91021 0.491426 2.3269 1.00564 2.3269H5.02096C5.14799 2.3269 5.53564 2.3269 5.80005 3.2405L10.9811 22.2816C11.0936 22.6833 11.4597 22.9608 11.8774 22.9608H24.5327C24.9255 22.9608 25.2761 22.7147 25.4088 22.3448L29.8694 9.17062C29.9721 8.88515 29.9294 8.56734 29.7555 8.32031ZM23.8775 21.0994H12.584L9.62054 9.78709H27.6702L23.8775 21.0994ZM22.0312 24.8476C20.7365 24.8476 19.6874 25.8966 19.6874 27.1913C19.6874 28.486 20.7365 29.5351 22.0312 29.5351C23.3258 29.5351 24.3749 28.486 24.3749 27.1913C24.3749 25.8966 23.3258 24.8476 22.0312 24.8476ZM13.5937 24.8476C12.299 24.8476 11.2499 25.8966 11.2499 27.1913C11.2499 28.486 12.299 29.5351 13.5937 29.5351C14.8883 29.5351 15.9374 28.486 15.9374 27.1913C15.9374 25.8966 14.8883 24.8476 13.5937 24.8476Z" fill="white"/>
<path d="M28.125 9.375H8.90625L12.6562 22.0312H24.375L28.125 9.375Z" fill="white" stroke="white" stroke-width="1.5"/>
</g>
<defs>
<clipPath id="clip0_67_336">
<rect width="30" height="30" fill="white"/>
</clipPath>
</defs>
</svg>
