<svg width="32" height="32" viewBox="0 0 256 256"><path fill="currentColor" d="m163.3 123l-48-32a6 6 0 0 0-9.3 5v64a6 6 0 0 0 3.2 5.3a5.9 5.9 0 0 0 6.1-.3l48-32a6 6 0 0 0 0-10ZM118 148.8v-41.6l31.2 20.8Zm114.4-78.5a22 22 0 0 0-13.3-15C185 42.2 130.3 42.4 128 42.4s-57-.2-91.1 12.9a22 22 0 0 0-13.3 15C21 80.1 18 98.1 18 128s3 47.9 5.6 57.7a22 22 0 0 0 13.3 15c34.1 13.1 88.8 12.9 91.1 12.9h.7c6.9 0 57.9-.4 90.4-12.9a22 22 0 0 0 13.3-15c2.6-9.8 5.6-27.8 5.6-57.7s-3-47.9-5.6-57.7Zm-11.6 112.4a10 10 0 0 1-6 6.8c-32 12.3-86.2 12.1-86.8 12.1s-54.8.2-86.8-12.1a10 10 0 0 1-6-6.8c-2.4-9.2-5.2-26.1-5.2-54.7s2.8-45.5 5.2-54.7a10 10 0 0 1 6-6.8c32-12.3 86.2-12.1 86.8-12.1s54.8-.2 86.8 12.1a10 10 0 0 1 6 6.8c2.4 9.2 5.2 26.1 5.2 54.7s-2.8 45.5-5.2 54.7Z"/></svg>