<svg width="30" height="30" viewBox="0 0 30 30" fill="none" xmlns="http://www.w3.org/2000/svg">
<path fill-rule="evenodd" clip-rule="evenodd" d="M16.5 26C22.7131 26 27.75 21.0751 27.75 15C27.75 8.92494 22.7131 3.99999 16.5 3.99999C10.2869 3.99999 5.25 8.92494 5.25 15C5.25 21.0751 10.2869 26 16.5 26ZM16.5 27.2222C23.4038 27.2222 29 21.7503 29 15C29 8.24966 23.4038 2.77777 16.5 2.77777C9.59625 2.77777 4 8.24966 4 15C4 21.7503 9.59625 27.2222 16.5 27.2222Z" fill="white"/>
<path d="M9 22.1072C9 21.4759 9.4825 20.9424 10.125 20.8728C14.9469 20.3509 18.075 20.3979 22.8862 20.8844C23.1265 20.909 23.3542 21.0016 23.5416 21.1507C23.7289 21.2998 23.8678 21.4991 23.9412 21.7241C24.0147 21.9491 24.0195 22.1902 23.9551 22.4179C23.8908 22.6456 23.76 22.85 23.5788 23.0062C17.9006 27.8455 14.6556 27.7789 9.4 23.011C9.14375 22.7788 9 22.4488 9 22.1078V22.1072Z" fill="white"/>
<path fill-rule="evenodd" clip-rule="evenodd" d="M22.8219 21.4918C18.0488 21.0091 14.9656 20.9638 10.1931 21.4802C10.036 21.4981 9.8912 21.5721 9.78638 21.6879C9.68155 21.8037 9.62409 21.9532 9.625 22.1078C9.625 22.2826 9.69938 22.4482 9.825 22.5631C12.43 24.9257 14.4038 25.9933 16.3331 26C18.2694 26.0067 20.3494 24.9477 23.1681 22.546C23.2577 22.4681 23.3221 22.3664 23.3537 22.2533C23.3852 22.1402 23.3825 22.0206 23.3458 21.909C23.3092 21.7974 23.2401 21.6986 23.1471 21.6247C23.0541 21.5507 22.9411 21.5048 22.8219 21.4925V21.4918ZM10.0563 20.2653C14.9288 19.738 18.1025 19.7856 22.9513 20.2763C23.3127 20.3132 23.6553 20.4524 23.9371 20.6767C24.2189 20.901 24.4277 21.2009 24.538 21.5394C24.6482 21.878 24.6551 22.2407 24.5577 22.583C24.4604 22.9254 24.2631 23.2326 23.99 23.467C21.1306 25.9041 18.7494 27.2314 16.3294 27.2222C13.9025 27.2137 11.6263 25.8637 8.97563 23.459C8.78585 23.2862 8.63456 23.0769 8.53122 22.8443C8.42787 22.6117 8.3747 22.3608 8.375 22.1072C8.37409 21.6516 8.54513 21.2117 8.85536 20.8717C9.16558 20.5317 9.59318 20.3156 10.0563 20.2647V20.2653Z" fill="white"/>
<path d="M21.5 12.5555C21.5 13.8522 20.9732 15.0957 20.0355 16.0125C19.0979 16.9294 17.8261 17.4444 16.5 17.4444C15.1739 17.4444 13.9021 16.9294 12.9645 16.0125C12.0268 15.0957 11.5 13.8522 11.5 12.5555C11.5 11.2589 12.0268 10.0154 12.9645 9.09858C13.9021 8.18173 15.1739 7.66666 16.5 7.66666C17.8261 7.66666 19.0979 8.18173 20.0355 9.09858C20.9732 10.0154 21.5 11.2589 21.5 12.5555Z" fill="white"/>
<path fill-rule="evenodd" clip-rule="evenodd" d="M16.5 16.2222C17.4946 16.2222 18.4484 15.8359 19.1517 15.1483C19.8549 14.4606 20.25 13.528 20.25 12.5555C20.25 11.5831 19.8549 10.6505 19.1517 9.96282C18.4484 9.27519 17.4946 8.88888 16.5 8.88888C15.5054 8.88888 14.5516 9.27519 13.8483 9.96282C13.1451 10.6505 12.75 11.5831 12.75 12.5555C12.75 13.528 13.1451 14.4606 13.8483 15.1483C14.5516 15.8359 15.5054 16.2222 16.5 16.2222ZM16.5 17.4444C17.8261 17.4444 19.0979 16.9294 20.0355 16.0125C20.9732 15.0957 21.5 13.8522 21.5 12.5555C21.5 11.2589 20.9732 10.0154 20.0355 9.09858C19.0979 8.18173 17.8261 7.66666 16.5 7.66666C15.1739 7.66666 13.9021 8.18173 12.9645 9.09858C12.0268 10.0154 11.5 11.2589 11.5 12.5555C11.5 13.8522 12.0268 15.0957 12.9645 16.0125C13.9021 16.9294 15.1739 17.4444 16.5 17.4444Z" fill="white"/>
</svg>
