<svg width="30" height="30" viewBox="0 0 30 30" fill="none" xmlns="http://www.w3.org/2000/svg">
<path d="M21.047 5.625C21.7295 5.62443 22.4054 5.76012 23.0348 6.02414C23.6643 6.28815 24.2347 6.67517 24.7126 7.1625C25.6974 8.16223 26.2494 9.50921 26.2494 10.9125C26.2494 12.3158 25.6974 13.6628 24.7126 14.6625L15.0001 24.4969L5.28759 14.6625C4.30283 13.6628 3.75083 12.3158 3.75083 10.9125C3.75083 9.50921 4.30283 8.16223 5.28759 7.1625C5.76581 6.67552 6.33626 6.2887 6.96564 6.02465C7.59501 5.7606 8.2707 5.6246 8.95322 5.6246C9.63574 5.6246 10.3114 5.7606 10.9408 6.02465C11.5702 6.2887 12.1406 6.67552 12.6188 7.1625L15.0001 9.6L17.372 7.18125C17.8484 6.68811 18.4195 6.29612 19.0509 6.02873C19.6824 5.76133 20.3612 5.62402 21.047 5.625ZM21.047 3.75C20.1147 3.74921 19.1917 3.93455 18.3321 4.29516C17.4724 4.65577 16.6934 5.18438 16.0407 5.85L15.0001 6.9L13.9595 5.85C13.306 5.18558 12.5268 4.65789 11.6673 4.29768C10.8078 3.93748 9.88515 3.75197 8.95322 3.75197C8.02129 3.75197 7.09867 3.93748 6.23917 4.29768C5.37966 4.65789 4.60045 5.18558 3.94697 5.85C2.61748 7.2034 1.87256 9.02471 1.87256 10.9219C1.87256 12.819 2.61748 14.6404 3.94697 15.9938L15.0001 27.1875L26.0532 15.9938C27.3827 14.6404 28.1276 12.819 28.1276 10.9219C28.1276 9.02471 27.3827 7.2034 26.0532 5.85C25.3999 5.18522 24.6208 4.65717 23.7612 4.29662C22.9017 3.93608 21.979 3.75026 21.047 3.75Z" fill="white"/>
</svg>
