<svg width="83" height="17" viewBox="0 0 83 17" fill="none" xmlns="http://www.w3.org/2000/svg">
<path d="M5.875 2.125H0.925V0.649999H12.4V2.125H7.45V16H5.875V2.125ZM15.4301 0.649999H17.0051V16H15.4301V0.649999ZM31.7162 16.175C31.3329 16.175 31.0162 16.1 30.7662 15.95C30.5162 15.7833 30.3162 15.5333 30.1662 15.2L28.2162 10.825C27.8995 10.0917 27.5245 9.55833 27.0912 9.225C26.6745 8.89167 26.0495 8.725 25.2162 8.725H22.7412V16H21.1662V0.649999H22.7412V7.3H25.0912C25.9079 7.3 26.5329 7.13333 26.9662 6.8C27.3995 6.45 27.7662 5.95833 28.0662 5.325C28.7995 3.80833 29.5162 2.225 30.2162 0.574999L31.7162 1.175C30.7495 3.275 30.0245 4.80833 29.5412 5.775C29.2745 6.34167 28.9995 6.78333 28.7162 7.1C28.4495 7.4 28.0329 7.675 27.4662 7.925V8.075C28.0495 8.275 28.4829 8.51667 28.7662 8.8C29.0662 9.08333 29.3495 9.51667 29.6162 10.1L31.7912 14.875L33.0412 15.075V15.975C32.5912 16.1083 32.1495 16.175 31.7162 16.175ZM38.0379 11.5C37.3879 11.5 36.8462 11.2833 36.4129 10.85C35.9796 10.4 35.7629 9.84167 35.7629 9.175C35.7629 8.54167 35.9796 8.01667 36.4129 7.6C36.8629 7.16667 37.4046 6.95 38.0379 6.95C38.6879 6.95 39.2296 7.16667 39.6629 7.6C40.1129 8.03333 40.3379 8.56667 40.3379 9.2C40.3379 9.86667 40.1129 10.4167 39.6629 10.85C39.2296 11.2833 38.6879 11.5 38.0379 11.5ZM48.1113 2.125H43.1613V0.649999H54.6363V2.125H49.6863V16H48.1113V2.125ZM55.0771 15.825C55.7771 13.2417 56.5521 10.6083 57.4021 7.925C58.2521 5.225 59.0855 2.8 59.9021 0.649999H63.0271C63.8438 2.8 64.6771 5.225 65.5271 7.925C66.3771 10.6083 67.1521 13.2417 67.8521 15.825L66.1771 16C65.7938 14.45 65.3188 12.7083 64.7521 10.775H58.1521C57.5188 13.0583 57.0521 14.8 56.7521 16L55.0771 15.825ZM64.3021 9.375C63.3188 6.04167 62.5521 3.64167 62.0021 2.175H60.9021C60.2688 3.89167 59.4938 6.29167 58.5771 9.375H64.3021ZM81.4477 16.175C81.0643 16.175 80.7477 16.1 80.4977 15.95C80.2477 15.7833 80.0477 15.5333 79.8977 15.2L77.9477 10.825C77.631 10.0917 77.256 9.55833 76.8227 9.225C76.406 8.89167 75.781 8.725 74.9477 8.725H72.4727V16H70.8977V0.649999H72.4727V7.3H74.8227C75.6393 7.3 76.2643 7.13333 76.6977 6.8C77.131 6.45 77.4977 5.95833 77.7977 5.325C78.531 3.80833 79.2477 2.225 79.9477 0.574999L81.4477 1.175C80.481 3.275 79.756 4.80833 79.2727 5.775C79.006 6.34167 78.731 6.78333 78.4477 7.1C78.181 7.4 77.7643 7.675 77.1977 7.925V8.075C77.781 8.275 78.2143 8.51667 78.4977 8.8C78.7977 9.08333 79.081 9.51667 79.3477 10.1L81.5227 14.875L82.7727 15.075V15.975C82.3227 16.1083 81.881 16.175 81.4477 16.175Z" fill="#FCFCFB"/>
</svg>
